<svg height="64" viewBox="0 0 128 128" width="64" xmlns="http://www.w3.org/2000/svg" xmlns:xlink="http://www.w3.org/1999/xlink"><linearGradient id="a" gradientUnits="userSpaceOnUse" x1="0" x2="128" y1="128" y2="0"><stop offset="0" stop-color="#333"/><stop offset="1" stop-color="#5d5d5d"/></linearGradient><path d="m24.636044 19.953748c-4.083502 0-7.404561 3.293838-7.404561 7.377339v41.37843 7.377338h93.537037v-7.377338-41.37843c0-4.0835-3.29384-7.377339-7.37734-7.377339zm-7.404561 62.829879v9.800156 8.085127c0 4.0835 3.321059 7.37734 7.404561 7.37734h27.41321 8.602358v-25.262623zm50.116901 0v25.262623h.353895 8.248463 27.440438c4.0835 0 7.37734-3.29384 7.37734-7.37734v-8.085127-9.800156z" fill="#eee8d5"/><path d="m27.329493 73.341002c-15.09189 0-27.329493 12.237598-27.329493 27.329498s12.237603 27.3295 27.329493 27.3295c15.0919 0 27.32951-12.2376 27.32951-27.3295s-12.23761-27.329498-27.32951-27.329498zm-13.33873 9.147091 13.33873 13.338732 13.33874-13.338732 4.84367 4.843673-13.33874 13.338734 13.33874 13.33874-4.84367 4.84367-13.33874-13.33874-13.33873 13.33874-4.84367-4.84367 13.338734-13.33874-13.338734-13.338734z" fill="#bf0000"/></svg>
