<svg height="64" viewBox="0 0 128 128" width="64" xmlns="http://www.w3.org/2000/svg" xmlns:xlink="http://www.w3.org/1999/xlink"><linearGradient id="a" gradientUnits="userSpaceOnUse" x1="0" x2="128" y1="128" y2="0"><stop offset="0" stop-color="#333"/><stop offset="1" stop-color="#5d5d5d"/></linearGradient><path d="m24.636044 19.953748c-4.083502 0-7.404561 3.293838-7.404561 7.377339v41.37843 7.377338h93.537037v-7.377338-41.37843c0-4.0835-3.29384-7.377339-7.37734-7.377339zm-7.404561 62.829879v9.800156 8.085127c0 4.0835 3.321059 7.37734 7.404561 7.37734h27.41321 8.602358v-25.262623zm50.116901 0v25.262623h.353895 8.248463 27.440438c4.0835 0 7.37734-3.29384 7.37734-7.37734v-8.085127-9.800156z" fill="#eee8d5"/><path d="m100.67051 0c-15.091905 0-27.329508 12.237601-27.329508 27.329504 0 15.0919 12.237603 27.32951 27.329508 27.32951 15.09189 0 27.32949-12.23761 27.32949-27.32951 0-15.091903-12.2376-27.329504-27.32949-27.329504zm13.78584 11.680708 5.79378 4.508344-20.846423 26.789242-.149038-.111744-5.644746-4.396567-12.500409-9.705979 4.508338-5.79378 12.500414 9.705979 16.338084-20.995468z" fill="#15a100"/></svg>
