<svg class="svg-icon" style="width: 1em; height: 1em;vertical-align: middle;fill:#073642;overflow: hidden;" viewBox="0 0 1024 1024" version="1.1" xmlns="http://www.w3.org/2000/svg"><path d="M835.7 279.5L664.1 451.2v60.9c0 41.8-14.9 77.7-44.7 107.5-29.8 29.8-65.6 44.7-107.5 44.7-17.4 0-34.7-3-51.8-9L414.5 701c30.7 16.2 63.2 24.2 97.5 24.2 58.6 0 108.8-20.8 150.5-62.5 41.6-41.8 62.4-91.9 62.4-150.6v-60.9c0-8.2 3-15.4 9-21.4s13.1-9 21.4-9c8.2 0 15.4 3 21.4 9s9 13.2 9 21.4V512c0 70.1-23.4 131-70.1 182.8-46.7 51.9-104.5 81.6-173.3 89.2v62.7H664c8.2 0 15.4 3 21.4 9s9 13.1 9 21.4c0 8.2-3 15.4-9 21.4s-13.2 9-21.4 9H359.7c-8.2 0-15.4-3-21.4-9s-9-13.2-9-21.4 3-15.4 9-21.4 13.1-9 21.4-9h121.7V784c-39.6-4.1-76.9-17-111.7-38.5L249 866.3c-3.2 3.2-6.8 4.8-10.9 4.8-4.1 0-7.8-1.6-10.9-4.8l-39-39c-3.2-3.2-4.8-6.8-4.8-10.9 0-4.1 1.6-7.8 4.8-10.9l586.7-586.7c3.2-3.2 6.8-4.8 10.9-4.8 4.1 0 7.8 1.6 10.9 4.8l39 39c3.2 3.2 4.8 6.8 4.8 10.9-0.1 4-1.6 7.6-4.8 10.8zM306 565.8l-48 48c-13.3-32.6-20-66.6-20-101.8v-61c0-8.2 3-15.4 9-21.4s13.1-9 21.4-9c8.2 0 15.4 3 21.4 9s9 13.2 9 21.4v60.9c0.1 16.9 2.5 34.9 7.2 53.9z m349-349.1L359.7 512V268.6c0-41.8 14.9-77.7 44.7-107.5 29.8-29.8 65.6-44.7 107.5-44.7 32.3 0 61.6 9.4 87.7 28.1 26.2 18.7 44.6 42.8 55.4 72.2z"  /></svg>
