<svg version="1.0" xmlns="http://www.w3.org/2000/svg" preserveAspectRatio="xMidYMid meet" viewBox="96.32 68 122.12 121.9">
<metadata>
Created by potrace 1.10, written by Peter Selinger 2001-2011
</metadata>
<g transform="translate(0.000000,265.000000) scale(0.100000,-0.100000)" fill="#073642" stroke="none">
<path d="M1000 1945 c-22 -24 -24 -35 -32 -213 -5 -103 -6 -209 -3 -236 6 -48 51 -181 139 -411 24 -60 48 -132 55 -160 9 -39 22 -60 59 -93 87 -81 63 -77 477 -80 417 -3 435 -1 469 58 19 32 21 50 20 225 l-2 190 -41 140 c-50 174 -61 241 -61 378 0 102 -1 108 -22 116 -13 5 -104 14 -203 20 -198 12 -393 38 -525 70 -59 15 -118 21 -196 21 -105 0 -112 -1 -134 -25z m230 -18 c0 -7 -4 -17 -9 -22 -9 -10 -13 -86 -12 -232 1 -51 6 -76 17 -87 17 -18 11 -38 -10 -30 -8 3 -17 1 -20 -5 -4 -6 -13 -8 -20 -5 -8 3 -17 1 -21 -5 -3 -6 -10 -11 -16 -11 -14 0 -11 28 4 33 8 4 7 6 -3 6 -23 1 -44 -15 -31 -23 16 -10 14 -26 -4 -26 -23 0 -75 -50 -75 -72 0 -27 110 -309 129 -331 18 -21 56 -19 113 6 18 8 67 26 108 41 137 50 145 56 144 101 -1 22 -3 49 -5 60 -4 19 0 20 136 17 128 -4 143 -6 176 -28 34 -23 41 -24 153 -19 64 3 122 6 128 8 25 5 38 -104 36 -285 -3 -198 -6 -207 -78 -228 -38 -11 -688 -8 -729 3 -32 9 -98 55 -122 85 -10 14 -24 43 -29 66 -6 22 -22 70 -36 106 -14 36 -26 72 -28 80 -2 8 -9 29 -15 45 -25 60 -63 162 -87 234 -23 67 -25 87 -24 230 1 86 3 168 4 184 1 15 3 38 4 52 4 51 33 65 132 65 67 0 90 -3 90 -13z m89 -13 c17 -4 31 -12 31 -19 0 -8 8 -11 20 -8 11 3 40 -1 63 -9 43 -15 111 -32 180 -43 l38 -6 -7 -102 c-3 -56 -7 -104 -7 -107 -3 -21 28 -158 38 -170 7 -8 15 -30 17 -49 l5 -33 -75 6 c-126 12 -129 13 -144 60 -12 38 -17 42 -58 50 -25 5 -47 11 -49 12 -2 2 -7 21 -10 41 -6 37 -8 38 -61 49 l-55 10 -2 150 c-2 82 -1 155 2 162 5 13 27 15 74 6z m386 -55 c7 -8 -11 -9 -65 -4 -41 3 -79 11 -85 17 -7 7 13 9 65 4 41 -4 79 -11 85 -17z m165 -18 c0 -9 -79 -13 -92 -5 -18 11 18 20 58 16 19 -2 34 -7 34 -11z m-106 -99 c-6 -86 17 -282 36 -307 4 -5 11 -25 15 -44 l7 -33 -53 7 c-30 4 -55 8 -57 10 -2 1 -4 15 -5 31 -1 21 4 31 23 41 15 7 19 13 10 13 -9 0 -22 -6 -28 -12 -18 -18 -34 8 -29 44 2 15 -1 29 -5 30 -13 5 -22 183 -14 251 l7 57 50 0 50 0 -7 -88z m273 -32 c2 -115 26 -260 51 -307 7 -12 12 -34 12 -50 l0 -28 -126 0 -126 0 -19 73 c-10 41 -18 77 -17 80 1 4 -2 14 -5 22 -10 25 -25 222 -20 262 l5 37 57 4 c31 2 85 3 121 3 l65 -1 2 -95z m-724 -164 c8 -8 20 -29 27 -46 11 -27 11 -33 -1 -40 -17 -11 -29 6 -29 41 0 15 -7 29 -15 33 -16 6 -21 26 -6 26 5 0 16 -6 24 -14z m-28 -53 c27 -65 25 -74 -25 -89 -59 -18 -60 -18 -60 9 0 12 -7 33 -16 45 -18 27 -12 40 30 58 46 20 54 17 71 -23z m-90 -106 c20 -55 35 -100 33 -102 -2 -2 -21 -11 -43 -21 -22 -10 -42 -19 -45 -21 -7 -4 -44 96 -38 102 3 3 22 11 43 18 21 8 34 16 28 20 -5 3 -26 -3 -47 -14 -34 -18 -37 -18 -43 -2 -3 10 -12 32 -19 50 -10 25 -10 34 0 42 21 18 81 40 88 33 3 -4 23 -51 43 -105z m273 -33 c23 -52 42 -101 42 -108 0 -7 -23 -19 -51 -28 -47 -15 -51 -15 -56 0 -3 9 -21 56 -39 103 -19 48 -34 90 -34 93 0 9 60 35 81 36 10 0 29 -32 57 -96z m-113 -51 c21 -54 38 -100 37 -103 -2 -3 -25 -13 -52 -22 -48 -16 -50 -16 -50 2 0 10 -16 56 -35 101 -19 46 -35 86 -35 90 0 7 56 26 81 28 11 1 27 -29 54 -96z m-95 -79 c11 -26 20 -52 20 -58 0 -7 -22 -19 -50 -28 -27 -9 -50 -14 -50 -12 0 2 -9 26 -20 54 l-20 51 42 19 c24 10 46 19 50 19 4 1 16 -20 28 -45z"/>
<path d="M1350 1853 c0 -34 -15 -46 -37 -32 -12 7 -28 9 -39 4 -15 -6 -11 -10 24 -17 42 -9 42 -9 42 -55 0 -45 -1 -45 -28 -40 -15 3 -34 2 -41 -2 -8 -6 4 -11 33 -15 30 -5 44 -11 40 -18 -5 -8 -1 -9 11 -5 10 4 33 2 51 -5 30 -11 34 -16 34 -49 0 -38 0 -38 -37 -34 l-38 5 40 -13 c27 -10 43 -23 52 -43 12 -27 13 -28 11 -4 -3 23 0 25 32 23 34 -2 34 -2 7 7 -16 5 -35 6 -43 3 -11 -4 -14 5 -14 41 l0 47 35 -7 c23 -4 35 -2 35 5 0 6 -17 11 -38 11 l-37 0 3 45 c4 45 8 49 50 45 12 -1 22 4 22 10 0 7 -7 10 -15 6 -8 -3 -15 -1 -15 5 0 6 -8 8 -17 5 -10 -3 -31 1 -47 9 -15 8 -38 12 -51 9 -22 -5 -23 -4 -18 35 3 23 3 41 -1 41 -3 0 -6 -8 -6 -17z m64 -83 c21 -8 26 -16 26 -42 0 -43 -11 -60 -30 -48 -8 6 -26 10 -39 10 -17 0 -22 4 -17 16 3 9 6 29 6 45 0 31 11 36 54 19z"/>
<path d="M1540 1773 c-11 -38 -11 -67 -3 -147 6 -56 14 -111 18 -123 6 -20 4 -23 -21 -24 -27 -2 -28 -2 -4 -6 14 -3 33 -12 43 -20 9 -9 17 -11 17 -5 0 6 -4 12 -9 14 -5 2 -11 16 -13 33 -3 26 1 31 27 36 l30 7 -31 1 c-28 1 -32 5 -37 34 -6 41 -2 47 34 47 16 0 29 3 29 8 0 4 -18 6 -40 4 l-39 -4 5 38 c9 61 12 67 38 62 14 -3 31 -1 38 3 13 9 -15 14 -56 11 -14 -2 -16 2 -11 15 13 32 18 63 8 63 -5 0 -15 -21 -23 -47z"/>
<path d="M1895 1715 c-4 -36 -5 -83 -2 -103 18 -114 29 -168 42 -193 8 -15 15 -38 15 -51 1 -21 2 -21 11 -5 8 13 7 22 -1 32 -16 19 -40 125 -46 209 -4 39 -7 76 -8 81 0 6 26 13 59 16 33 3 53 7 45 8 -8 2 -27 5 -43 7 -15 3 -36 0 -47 -6 -23 -12 -24 -10 -8 25 8 18 8 29 1 36 -8 8 -13 -8 -18 -56z"/>
<path d="M1813 1703 c-14 -11 -11 -13 25 -13 27 0 42 4 42 13 0 6 -11 12 -25 12 -13 0 -32 -6 -42 -12z"/>
<path d="M1935 1610 c-4 -6 12 -10 42 -9 36 0 43 3 28 9 -28 12 -63 12 -70 0z"/>
<path d="M1825 1600 c-4 -6 7 -10 24 -10 17 0 31 5 31 10 0 6 -11 10 -24 10 -14 0 -28 -4 -31 -10z"/>
<path d="M1960 1520 c20 -13 73 -13 65 0 -3 6 -23 10 -43 10 -28 0 -33 -3 -22 -10z"/>
</g>
</svg>