<svg version="1.0" xmlns="http://www.w3.org/2000/svg" preserveAspectRatio="xMidYMid meet" viewBox="76.58 59.18 120.92 122.32">
<metadata>
Created by potrace 1.10, written by Peter Selinger 2001-2011
</metadata>
<g transform="translate(0.000000,265.000000) scale(0.100000,-0.100000)" fill="#073642" stroke="none" style="--darkreader-inline-fill: var(--darkreader-background-073642, #062b35); --darkreader-inline-stroke: none;" data-darkreader-inline-fill="" data-darkreader-inline-stroke="">
<path d="M1725 2050 c-38 -4 -97 -15 -130 -24 -94 -24 -246 -44 -425 -56 -91 -6 -194 -14 -230 -18 l-65 -7 -7 -139 c-8 -155 -13 -186 -65 -371 -35 -127 -36 -134 -37 -315 -1 -208 4 -229 64 -264 34 -20 50 -21 405 -21 363 0 371 0 415 22 72 36 119 91 140 165 10 34 56 160 102 278 l83 215 0 236 c-1 267 -4 279 -72 298 -42 12 -74 12 -178 1z m196 -60 c16 -22 19 -53 24 -225 4 -162 3 -206 -9 -230 -8 -17 -15 -23 -15 -14 -1 24 -40 69 -68 80 -19 7 -24 15 -20 29 3 11 1 20 -4 20 -5 0 -9 -7 -9 -15 0 -8 -7 -15 -15 -15 -18 0 -19 12 -3 28 7 7 9 12 6 12 -4 0 -13 -7 -21 -15 -10 -9 -26 -12 -50 -8 l-36 5 20 37 c16 30 19 56 19 173 0 80 -4 139 -10 143 -29 18 -3 26 81 23 85 -3 93 -5 110 -28z m-217 -150 l0 -155 -56 -13 c-55 -14 -57 -15 -63 -54 -7 -42 -9 -43 -67 -53 -32 -5 -38 -11 -51 -48 -15 -46 -25 -50 -155 -59 -62 -4 -64 -4 -59 19 2 13 0 23 -4 23 -5 0 -9 -11 -9 -25 0 -24 -3 -25 -55 -25 -61 0 -66 8 -41 58 27 53 49 219 42 312 l-7 88 38 4 c74 9 72 13 68 -150 -2 -81 -8 -165 -14 -187 -14 -54 -14 -62 3 -45 21 21 38 168 34 285 l-3 100 45 3 c25 2 49 7 55 13 5 5 21 9 36 9 15 0 44 7 65 16 20 9 50 14 66 12 18 -3 28 0 28 8 0 16 24 23 70 21 l35 -2 -1 -155z m-290 120 c-13 -13 -114 -30 -180 -30 -33 0 -56 -5 -64 -15 -7 -8 -17 -12 -22 -9 -5 3 -32 6 -59 6 -28 -1 -60 3 -72 8 -17 7 -9 9 33 10 30 0 116 9 190 19 165 23 187 24 174 11z m-262 -80 c7 0 16 -100 8 -100 -3 0 -6 -42 -7 -92 -1 -51 -5 -99 -9 -107 -4 -9 -8 -23 -9 -31 -3 -23 -33 -131 -37 -136 -4 -4 -78 -6 -182 -5 l-68 0 5 38 c2 21 12 63 22 93 28 93 36 141 37 240 0 52 3 99 5 103 4 7 109 5 235 -3z m505 -258 c-10 -10 -17 -27 -17 -38 0 -11 -6 -28 -13 -38 -12 -16 -14 -16 -26 -3 -10 12 -10 21 0 39 18 35 40 58 57 58 13 0 13 -3 -1 -18z m105 -40 c16 -13 16 -17 3 -43 -8 -15 -15 -35 -15 -43 0 -24 -13 -26 -64 -9 -52 17 -53 20 -21 96 14 35 16 36 47 25 18 -6 41 -17 50 -26z m82 -16 c46 -19 51 -31 31 -82 -13 -35 -21 -44 -34 -38 -9 3 -29 11 -46 18 -16 6 -32 12 -34 13 -6 4 33 103 41 103 5 0 24 -6 42 -14z m-236 -60 c10 -10 4 -32 -29 -112 -22 -54 -42 -100 -43 -101 -8 -8 -96 31 -96 42 0 14 68 172 82 192 10 13 63 0 86 -21z m79 -32 c37 -14 42 -20 37 -38 -3 -12 -10 -25 -15 -30 -5 -6 -9 -17 -9 -26 0 -8 -9 -32 -20 -53 -11 -20 -20 -46 -20 -57 0 -24 1 -24 -61 -4 -28 10 -48 22 -46 28 52 128 82 196 86 196 3 0 25 -7 48 -16z m217 -31 c-4 -16 -14 -44 -22 -63 -20 -47 -77 -206 -109 -305 -39 -119 -84 -171 -174 -195 -21 -6 -179 -10 -368 -10 -456 0 -431 -15 -430 250 1 198 12 266 44 263 11 -1 71 -3 134 -3 100 -1 115 1 131 18 15 15 38 21 107 26 48 3 119 9 156 12 l68 6 -7 -38 c-14 -72 -11 -86 25 -111 19 -13 44 -23 56 -23 12 0 40 -9 63 -20 22 -11 48 -20 56 -20 9 0 30 -9 48 -20 18 -11 46 -20 62 -20 29 0 66 24 66 43 0 5 6 23 14 40 8 18 24 59 35 92 33 91 60 139 45 78z m-94 1 c22 -9 40 -17 40 -19 0 -1 -6 -18 -14 -36 -7 -19 -16 -42 -19 -52 -6 -16 -8 -16 -39 3 -18 11 -41 20 -50 20 -15 0 -16 4 -8 25 6 14 14 36 20 50 11 29 17 30 70 9z m-45 -108 c19 -8 35 -21 35 -29 0 -12 -27 -87 -34 -94 -7 -8 -96 31 -96 40 1 22 39 97 50 97 6 0 26 -7 45 -14z"/>
<path d="M1481 1900 c0 -15 4 -31 11 -38 9 -9 5 -12 -19 -12 -17 0 -38 -3 -47 -6 -12 -5 -18 2 -22 26 -5 21 -10 28 -17 21 -7 -7 -7 -18 1 -36 16 -35 17 -35 -23 -30 -20 3 -35 0 -35 -5 0 -6 16 -10 35 -10 32 0 35 -2 35 -29 0 -55 8 -63 58 -55 40 6 44 5 39 -10 -4 -10 -7 -29 -7 -42 0 -18 -5 -24 -22 -24 -13 0 -30 -5 -38 -11 -11 -7 -6 -8 19 -4 33 7 34 7 28 -21 -7 -29 -6 -29 10 3 12 25 26 35 57 42 l41 10 -40 -2 c-39 -1 -40 -1 -38 32 2 41 11 51 49 54 26 2 29 -2 35 -33 l6 -35 2 42 c1 47 5 51 49 55 17 1 28 6 26 10 -3 4 -20 7 -37 5 -30 -2 -32 0 -35 35 -3 32 -7 38 -34 43 -20 5 -33 3 -38 -6 -11 -17 -37 4 -43 34 -4 19 -4 19 -6 -3z m111 -85 c3 -40 1 -45 -17 -45 -11 0 -30 -3 -42 -6 -21 -6 -23 -3 -23 39 0 47 6 53 56 56 19 1 22 -5 26 -44z m-97 -27 l3 -46 -38 -4 c-36 -3 -39 -2 -42 27 -5 46 1 63 25 68 43 9 49 3 52 -45z"/>
<path d="M1345 1710 c-16 -7 -12 -9 19 -9 30 -1 37 -4 32 -17 -3 -9 -6 -27 -6 -40 0 -21 -5 -24 -37 -25 l-38 -2 40 -6 c26 -4 35 -9 28 -14 -7 -5 -13 -19 -13 -33 0 -14 -4 -22 -10 -19 -6 4 -10 -9 -9 -32 1 -33 2 -35 8 -13 5 14 13 34 18 45 29 56 45 165 24 165 -5 0 -15 2 -23 4 -7 3 -22 1 -33 -4z"/>
<path d="M1043 1833 l2 -43 -40 6 c-22 3 -46 7 -52 10 -7 2 -13 -1 -13 -6 0 -6 16 -10 36 -10 42 0 75 -15 69 -33 -2 -6 -6 -41 -10 -76 -8 -84 -23 -156 -41 -189 -14 -27 -20 -71 -7 -59 12 13 43 112 54 172 21 122 23 163 10 225 l-10 45 2 -42z"/>
<path d="M1070 1791 c0 -13 27 -21 47 -14 15 6 15 7 -3 14 -27 11 -44 11 -44 0z"/>
</g>
</svg>